<svg xmlns="http://www.w3.org/2000/svg" width="1200" height="600" viewBox="0 0 1200 600">
<defs>
  <marker id="ah" viewBox="0 0 10 10" refX="8" refY="5" markerWidth="6" markerHeight="6" orient="auto-start-reverse"><path d="M0 0 L10 5 L0 10 z" fill="#2c2416"/></marker>
  <marker id="aa" viewBox="0 0 10 10" refX="8" refY="5" markerWidth="6" markerHeight="6" orient="auto-start-reverse"><path d="M0 0 L10 5 L0 10 z" fill="#8b6f47"/></marker>
  <pattern id="hatch" width="14" height="14" patternUnits="userSpaceOnUse" patternTransform="rotate(45)"><line x1="0" y1="0" x2="0" y2="14" stroke="#8b6f47" stroke-width="5"/></pattern>
</defs>
<rect width="1200" height="600" fill="#ece3d2"/>
<circle cx="330" cy="150" r="72" fill="#fdfcfa" stroke="#2c2416" stroke-width="3"/>
<text x="330" y="166" font-family="'Times New Roman', Times, Georgia, serif" font-size="46" fill="#2c2416" text-anchor="middle" >T1</text>
<circle cx="870" cy="450" r="72" fill="#fdfcfa" stroke="#2c2416" stroke-width="3"/>
<text x="870" y="466" font-family="'Times New Roman', Times, Georgia, serif" font-size="46" fill="#2c2416" text-anchor="middle" >T2</text>
<rect x="804" y="84" width="132" height="132" fill="#e0d7c8" stroke="#2c2416" stroke-width="3" />
<text x="870" y="166" font-family="'Times New Roman', Times, Georgia, serif" font-size="46" fill="#2c2416" text-anchor="middle" >R1</text>
<rect x="264" y="384" width="132" height="132" fill="#e0d7c8" stroke="#2c2416" stroke-width="3" />
<text x="330" y="466" font-family="'Times New Roman', Times, Georgia, serif" font-size="46" fill="#2c2416" text-anchor="middle" >R2</text>
<line x1="406" y1="150" x2="798" y2="150" stroke="#8b6f47" stroke-width="6" marker-end="url(#aa)"/>
<line x1="870" y1="220" x2="870" y2="372" stroke="#8b6f47" stroke-width="6" marker-end="url(#aa)"/>
<line x1="794" y1="450" x2="402" y2="450" stroke="#8b6f47" stroke-width="6" marker-end="url(#aa)"/>
<line x1="330" y1="380" x2="330" y2="228" stroke="#8b6f47" stroke-width="6" marker-end="url(#aa)"/>
<text x="600" y="126" font-family="'Times New Roman', Times, Georgia, serif" font-size="32" fill="#6b5d4f" text-anchor="middle" >waits for</text>
<text x="600" y="500" font-family="'Times New Roman', Times, Georgia, serif" font-size="32" fill="#6b5d4f" text-anchor="middle" >waits for</text>
<text x="900" y="312" font-family="'Times New Roman', Times, Georgia, serif" font-size="32" fill="#6b5d4f" text-anchor="start" >held by</text>
<text x="300" y="312" font-family="'Times New Roman', Times, Georgia, serif" font-size="32" fill="#6b5d4f" text-anchor="end" >held by</text>
<text x="600" y="314" font-family="'Times New Roman', Times, Georgia, serif" font-size="44" fill="#2c2416" text-anchor="middle" font-style="italic">deadlock</text>
</svg>
